<svg xmlns="http://www.w3.org/2000/svg" viewBox="0 0 1580.2 953.1"><defs><style>.cls-2{fill:#00064f}</style></defs><g id="_레이어_1"><path d="m309.8 953.1-40.5-322.8h.9-1.8l-78.2 322.8H0l170.2-703.5h190.3L288 549h-1 1l-2.3 2 .4-2h2.8l177-299.4h200.5L432.3 589l81.8 364H309.8Zm897.2-.4 170.1-703.1h190.1l-129.8 536.7h142.9L1540 952.7h-332.9Zm-481.3-630L573.8 950.8c281.1-173.8 448.7-457 151.9-628.1" class="cls-2"/><path d="M981.8 249.4H869.4c270 218.4 154.5 532.4-271.9 703.3h213.9c239.9 0 335.8-67.5 361.1-200.1 24.1-125.3-37.1-154.6-110-168.1l1.6-6.9c101.7.6 154.5-70.3 170.7-154 25.1-129.5-46-174.2-253-174.2" class="cls-2"/><path d="M711.5 278.9c77.2 0 139.6-62.5 139.6-139.4S788.7 0 711.5 0 572.3 62.4 572.3 139.5s62.1 139.4 139.2 139.4" style="fill:#ff4c05"/></g></svg>